{"title":"Smurfs.2.2013 R6 HDRip.2Audio-SmY","uid":8941164,"size":1807333719,"categoryP":"video","categoryS":"movies","magnet":"?xt=urn:btih:a7bf0f7524deb81532230cfde30920c8cc298bdc&amp;dn=Smurfs.2.2013+R6+HDRip.2Audio-SmY&amp;tr=udp%3A%2F%2Ftracker.openbittorrent.com%3A80&amp;tr=udp%3A%2F%2Fopen.demonii.com%3A1337&amp;tr=udp%3A%2F%2Ftracker.coppersurfer.tk%3A6969&amp;tr=udp%3A%2F%2Fexodus.desync.com%3A6969","seeders":2,"leechers":0,"uploader":"TeX","files":2,"time":1379660210,"description":"[img]http://ecx.images-amazon.com/images/I/91q50IhHMlL.jpg[/img]\n\n Format : Matroska\n Format version : Version 2\n File size : 1.68 GiB\n Duration : 1h 40mn\n Overall bit rate : 2 393 Kbps\n Encoded date : UTC 2013-09-19 14:45:48\n Writing application : mkvmerge v5.2.0 ('I can't explain') built on Dec 18 2011 18:12:03\n Writing library : libebml v1.2.3 + libmatroska v1.3.0\n Video #1\n ID : 1\n Format : AVC\n Format/Info : Advanced Video Codec\n Format profile : &lt;a class=&quot;__cf_email__&quot; href=&quot;/cdn-cgi/l/email-protection&quot; data-cfemail=&quot;367e5f515e767a051807&quot;&gt;[email&amp;#160;protected]&lt;/a&gt;&lt;script cf-hash='f9e31' type=&quot;text/javascript&quot;&gt;\n/* &lt;![CDATA[ */!function(){try{var t=&quot;currentScript&quot;in document?document.currentScript:function(){for(var t=document.getElementsByTagName(&quot;script&quot;),e=t.length;e--;)if(t[e].getAttribute(&quot;cf-hash&quot;))return t[e]}();if(t&amp;&amp;t.previousSibling){var e,r,n,i,c=t.previousSibling,a=c.getAttribute(&quot;data-cfemail&quot;);if(a){for(e=&quot;&quot;,r=parseInt(a.substr(0,2),16),n=2;a.length-n;n+=2)i=parseInt(a.substr(n,2),16)^r,e+=String.fromCharCode(i);e=document.createTextNode(e),c.parentNode.replaceChild(e,c)}}}catch(u){}}();/* ]]&gt; */&lt;/script&gt;\n Format settings, CABAC : Yes\n Format settings, ReFrames : 4 frames\n Muxing mode : Header stripping\n Codec ID : V_MPEG4/ISO/AVC\n Duration : 1h 40mn\n Bit rate : 2 000 Kbps\n Width : 720 pixels\n Height : 366 pixels\n Display aspect ratio : 1.967\n Frame rate : 29.970 fps\n Color space : YUV\n Chroma subsampling : 4:2:0\n Bit depth : 8 bits\n Scan type : Progressive\n Bits/(Pixel*Frame) : 0.253\n Stream size : 1.38 GiB (82%)\n Writing library : x264 core 116 r2074 2641b9e\n \n Audio #2\n ID : 2\n Format : AC-3\n Format/Info : Audio Coding 3\n Mode extension : CM (complete main)\n Format settings, Endianness : Big\n Muxing mode : Header stripping\n Codec ID : A_AC3\n Duration : 1h 40mn\n Bit rate mode : Constant\n Bit rate : 192 Kbps\n Channel(s) : 2 channels\n Channel positions : Front: L R\n Sampling rate : 48.0 KHz\n Bit depth : 16 bits\n Compression mode : Lossy\n Stream size : 138 MiB (8%)\n Default : Yes\n Forced : No\n Audio #3\n ID : 3\n Format : AC-3\n Format/Info : Audio Coding 3\n Mode extension : CM (complete main)\n Format settings, Endianness : Big\n Muxing mode : Header stripping\n Codec ID : A_AC3\n Duration : 1h 40mn\n Bit rate mode : Constant\n Bit rate : 192 Kbps\n Channel(s) : 2 channels\n Channel positions : Front: L R\n Sampling rate : 48.0 KHz\n Bit depth : 16 bits\n Compression mode : Lossy\n Delay relative to video : 667ms\n Stream size : 138 MiB (8%)\n Default : No\n Forced : No\n Text #4\n ID : 4\n Format : VobSub\n Muxing mode : zlib\n Codec ID : S_VOBSUB\n Codec ID/Info : The same subtitle format used on DVDs\n Language : Chinese\n Default : Yes\n Forced : No\n Text #5\n ID : 5\n Format : VobSub\n Muxing mode : zlib\n Codec ID : S_VOBSUB\n Codec ID/Info : The same subtitle format used on DVDs\n Language : Chinese\n Default : No\n Forced : No\n\n[img]http://www.71pp.net/attachment/thumb/Mon_1309/15_91_9686a28e809ca10.jpg?36[/img]\n[img]http://www.71pp.net/attachment/thumb/Mon_1309/15_91_eeaa46fc3ae8482.jpg?38[/img]\n[img]http://www.71pp.net/attachment/thumb/Mon_1309/15_91_f0cb4c49004ce7c.jpg?70[/img]","torrent":{"xt":"urn:btih:a7bf0f7524deb81532230cfde30920c8cc298bdc","amp;dn":"Smurfs.2.2013+R6+HDRip.2Audio-SmY","amp;tr":["udp%3A%2F%2Ftracker.openbittorrent.com%3A80","udp%3A%2F%2Fopen.demonii.com%3A1337","udp%3A%2F%2Ftracker.coppersurfer.tk%3A6969","udp%3A%2F%2Fexodus.desync.com%3A6969"],"infoHash":"a7bf0f7524deb81532230cfde30920c8cc298bdc","infoHashBuffer":{"type":"Buffer","data":[167,191,15,117,36,222,184,21,50,35,12,253,227,9,32,200,204,41,139,220]},"announce":[],"urlList":[]}}